<svg width="522.5999999999999" height="135.7910981665273" viewBox="-4 0 373.6666666666667 97.0926272768702" class="css-1j8o68f"><defs id="SvgjsDefs5142"></defs><g id="SvgjsG5143" featurekey="HKaMnE-0" transform="matrix(0.9936188914217559,0,0,0.9936188914217559,-12.01390834478248,10.865390861890099)" fill="#276b96"><g xmlns="http://www.w3.org/2000/svg"><path d="M62.573,86.781c-0.548,0-1.084-0.226-1.471-0.645L48.709,72.688H34.247c-0.691,0-1.333-0.356-1.698-0.943l-8.071-12.97   l-13.533-5.149c-0.709-0.27-1.205-0.918-1.279-1.673l-1.59-16.166c-0.058-0.589,0.148-1.174,0.563-1.597l15.199-15.477   c0.256-0.261,0.578-0.446,0.932-0.537l19.161-4.895c0.19-0.048,0.383-0.069,0.583-0.06l14.001,0.611   c0.269,0.012,0.532,0.078,0.775,0.193l15.915,7.6c0.25,0.12,0.474,0.29,0.654,0.501l11.998,13.956   c0.215,0.25,0.364,0.548,0.436,0.87l3.593,16.168c0.115,0.516,0.021,1.056-0.262,1.502L82.367,69.27   c-0.413,0.655-1.154,1.018-1.937,0.916l-14.087-1.746l-2.103,5.238l0.331,11.044c0.025,0.834-0.471,1.596-1.244,1.911   C63.084,86.733,62.827,86.781,62.573,86.781z M35.357,68.688h14.229c0.559,0,1.092,0.233,1.471,0.645l9.356,10.154L60.23,73.38   c-0.009-0.275,0.04-0.549,0.143-0.805l2.832-7.055c0.339-0.842,1.201-1.358,2.103-1.239l14.356,1.779l8.139-12.878L84.497,38.31   L73.101,25.053l-15.167-7.243L44.635,17.23l-18.334,4.684L12.148,36.325l1.377,14.002l13.005,4.948   c0.409,0.155,0.755,0.441,0.987,0.813L35.357,68.688z"></path><path d="M30.711,46.518c-0.268,0-0.538-0.054-0.793-0.164L9.272,37.426c-1.014-0.438-1.48-1.616-1.042-2.63   c0.438-1.014,1.616-1.479,2.63-1.042l19.375,8.378L56.989,14.44c0.768-0.795,2.033-0.816,2.828-0.049   c0.794,0.768,0.816,2.034,0.049,2.828L32.15,45.908C31.765,46.306,31.243,46.518,30.711,46.518z"></path><path d="M34.248,72.688c-0.606,0-1.205-0.274-1.598-0.795c-0.666-0.882-0.49-2.136,0.391-2.802l18.724-14.134   c0.066-0.05,0.137-0.096,0.209-0.138l33.37-19.167c0.956-0.549,2.18-0.22,2.73,0.738c0.55,0.958,0.22,2.18-0.738,2.73   L54.075,58.226L35.452,72.284C35.091,72.556,34.667,72.688,34.248,72.688z"></path><path d="M86.863,60.415c-0.037,0-0.074-0.001-0.111-0.003l-33.891-1.861c-0.295-0.017-0.582-0.098-0.842-0.237L29.761,46.277   c-0.51-0.275-0.875-0.758-1.001-1.324l-5.447-24.404c-0.24-1.078,0.438-2.147,1.517-2.388c1.075-0.24,2.147,0.438,2.388,1.517   l5.248,23.514l21.062,11.389l33.443,1.837c1.104,0.061,1.948,1.004,1.888,2.106C88.8,59.59,87.917,60.415,86.863,60.415z"></path><circle cx="52.885" cy="56.603" r="7.409"></circle><circle cx="30.926" cy="43.96" r="7.409"></circle><polygon points="84.688,39.354 58.483,34.537 56.442,17.499 60.413,17.023 62.104,31.136 85.41,35.419  "></polygon><circle cx="59.409" cy="34.314" r="7.409"></circle><g><line x1="58.428" y1="34.316" x2="52.971" y2="56.554"></line><rect x="53.699" y="33.986" transform="matrix(0.9712 0.2383 -0.2383 0.9712 12.4307 -11.9634)" width="4" height="22.898"></rect></g><g><line x1="25.819" y1="57.145" x2="30.926" y2="43.962"></line><rect x="26.373" y="43.485" transform="matrix(0.9324 0.3614 -0.3614 0.9324 20.1846 -6.8366)" width="4" height="14.137"></rect></g></g></g><g id="SvgjsG5144" featurekey="J3GnXt-0" transform="matrix(3.2113034588912512,0,0,3.2113034588912512,100.8805417384066,14.328838753106178)" fill="#111111"><path d="M5.88 5.48 c1.84 0 3.2 0.54006 4.08 1.6201 l-1.56 1.42 c-0.24 -0.37334 -0.58 -0.67334 -1.02 -0.9 s-0.94666 -0.34 -1.52 -0.34 c-0.82666 0 -1.49 0.20334 -1.99 0.61 s-0.75 0.93 -0.75 1.57 c0 1.0667 0.70666 1.8133 2.12 2.24 l1.78 0.58 c1 0.32 1.7633 0.76666 2.29 1.34 s0.79 1.36 0.79 2.36 c0 1.3067 -0.46334 2.3634 -1.39 3.17 s-2.1034 1.21 -3.53 1.21 c-2.04 0 -3.5466 -0.65334 -4.52 -1.96 l1.58 -1.36 c0.30666 0.48 0.72666 0.85334 1.26 1.12 s1.1133 0.4 1.74 0.4 c0.78666 0 1.4533 -0.22666 2 -0.68 s0.82 -1.0133 0.82 -1.68 c0 -0.49334 -0.16666 -0.90668 -0.5 -1.24 s-0.93334 -0.63334 -1.8 -0.9 l-1.26 -0.42 c-1.2667 -0.42666 -2.1534 -0.97 -2.66 -1.63 s-0.76 -1.51 -0.76 -2.55 c0 -1.1067 0.44666 -2.0466 1.34 -2.82 s2.0466 -1.16 3.46 -1.16 z M14.280000000000001 4.880000000000001 l0.000019531 7.1 l0.04 0 c0.25334 -0.53334 0.66334 -0.95 1.23 -1.25 s1.1967 -0.45 1.89 -0.45 c1.0533 0 1.89 0.32 2.51 0.96 s0.93 1.5 0.93 2.58 l0 6.18 l-1.8 0 l0 -5.66 c0 -0.73334 -0.19 -1.3133 -0.57 -1.74 s-0.91 -0.64 -1.59 -0.64 c-0.84 0 -1.4867 0.27334 -1.94 0.82 s-0.68668 1.3 -0.70002 2.26 l0 4.96 l-1.8 0 l0 -15.12 l1.8 0 z M28.180000000000003 10.28 c1.4 0 2.5866 0.48338 3.56 1.45 s1.4667 2.1434 1.48 3.53 c0 1.4 -0.48666 2.5734 -1.46 3.52 s-2.1666 1.4333 -3.58 1.46 c-1.3867 0 -2.5666 -0.48 -3.54 -1.44 s-1.4733 -2.14 -1.5 -3.54 c0 -1.3733 0.48334 -2.54 1.45 -3.5 s2.1634 -1.4533 3.59 -1.48 z M25.060000000000002 15.26 c0 0.97334 0.28664 1.7633 0.85998 2.37 s1.3267 0.91666 2.26 0.93 c0.94666 0 1.7 -0.30334 2.26 -0.91 s0.84666 -1.4033 0.86 -2.39 c0 -0.97334 -0.28 -1.7633 -0.84 -2.37 s-1.3267 -0.91666 -2.3 -0.93 c-0.94666 0 -1.7 0.31334 -2.26 0.94 s-0.84 1.4133 -0.84 2.36 z M40.64 10.28 c1.4 0 2.5434 0.45998 3.43 1.38 s1.3433 2.12 1.37 3.6 c0 1.48 -0.45334 2.6766 -1.36 3.59 s-2.06 1.3767 -3.46 1.39 c-0.69334 0 -1.34 -0.14666 -1.94 -0.44 s-1.0533 -0.68 -1.36 -1.16 l-0.04 0 l0 7 l-1.8 0 l0 -15.12 l1.8 0 l0 1.36 l0.04 0 c0.36 -0.50666 0.83334 -0.9 1.42 -1.18 s1.22 -0.42 1.9 -0.42 z M37.28 15.26 c0 0.98666 0.28998 1.7833 0.86998 2.39 s1.33 0.91 2.25 0.91 c0.96 0 1.7167 -0.30334 2.27 -0.91 s0.83668 -1.4033 0.85002 -2.39 c0 -0.98666 -0.28334 -1.78 -0.85 -2.38 s-1.33 -0.90666 -2.29 -0.92 c-0.94666 0 -1.7 0.31 -2.26 0.93 s-0.84 1.41 -0.84 2.37 z M52.040000000000006 10.28 c1.4533 0 2.5834 0.45664 3.39 1.37 s1.2167 2.17 1.23 3.77 l0 0.5 l-7.6 0 c0 0.77334 0.31 1.4233 0.93 1.95 s1.3767 0.79666 2.27 0.81 c0.98666 0 1.8533 -0.47334 2.6 -1.42 l1.36 1.04 c-1.0133 1.2933 -2.4134 1.94 -4.2 1.94 c-1.4533 0 -2.6234 -0.46334 -3.51 -1.39 s-1.3433 -2.1234 -1.37 -3.59 c0 -1.4133 0.45666 -2.59 1.37 -3.53 s2.09 -1.4233 3.53 -1.45 z M54.74 14.48 c-0.02666 -0.89334 -0.28 -1.5767 -0.76 -2.05 s-1.14 -0.71 -1.98 -0.71 c-0.56 0 -1.0633 0.13666 -1.51 0.41 s-0.79666 0.62668 -1.05 1.06 s-0.38 0.86334 -0.38 1.29 l5.68 0 z M68.32000000000001 4.880000000000001 l-0.000019531 15.12 l-1.8 0 l0 -1.36 l-0.04 0 c-0.34666 0.50666 -0.81666 0.9 -1.41 1.18 s-1.2233 0.42 -1.89 0.42 c-1.4267 -0.01334 -2.5834 -0.48668 -3.47 -1.42 s-1.3367 -2.12 -1.35 -3.56 c0 -1.4533 0.44334 -2.64 1.33 -3.56 s2.05 -1.3933 3.49 -1.42 c0.65334 0 1.28 0.14 1.88 0.42 s1.0733 0.67334 1.42 1.18 l0.04 0 l0 -7 l1.8 0 z M60.28000000000001 15.26 c0 0.97334 0.28666 1.7633 0.86 2.37 s1.3267 0.91666 2.26 0.93 c0.94666 0 1.7033 -0.30334 2.27 -0.91 s0.85 -1.4033 0.85 -2.39 c0 -0.97334 -0.28 -1.7633 -0.84 -2.37 s-1.3267 -0.91666 -2.3 -0.93 c-0.93334 0 -1.6833 0.30666 -2.25 0.92 s-0.85 1.4067 -0.85 2.38 z M72.10000000000001 5.800000000000001 c0.36 0 0.67002 0.13002 0.93002 0.39002 s0.39 0.57 0.39 0.93 c0 0.37334 -0.13334 0.68668 -0.4 0.94002 s-0.57332 0.38 -0.91998 0.38 c-0.37334 0 -0.68668 -0.12666 -0.94002 -0.38 s-0.38 -0.56668 -0.38 -0.94002 s0.13334 -0.68668 0.4 -0.94002 s0.57332 -0.38 0.91998 -0.38 z M73 10.52 l0 9.48 l-1.8 0 l0 -9.48 l1.8 0 z M79.66 10.28 c1.2 0 2.15 0.27328 2.85 0.81994 s1.07 1.3067 1.11 2.28 l0 5.08 c0 0.48 0.02666 0.99334 0.08 1.54 l-1.6 0 c-0.04 -0.42666 -0.06 -0.90666 -0.06 -1.44 l-0.04 0 c-0.41334 0.61334 -0.89 1.0467 -1.43 1.3 s-1.17 0.38 -1.89 0.38 c-0.97334 0 -1.7633 -0.26 -2.37 -0.78 s-0.91 -1.2067 -0.91 -2.06 c0 -1.08 0.45334 -1.8967 1.36 -2.45 s2.1866 -0.83 3.84 -0.83 l1.34 0 l0 -0.34 c0 -0.64 -0.21 -1.1433 -0.63 -1.51 s-0.97 -0.55 -1.65 -0.55 c-0.50666 0 -0.95 0.07666 -1.33 0.23 s-0.83 0.43668 -1.35 0.85002 l-1.08 -1.12 c1.0267 -0.90666 2.28 -1.3733 3.76 -1.4 z M77.2 17.259999999999998 c0 1.0267 0.68002 1.54 2.04 1.54 c0.81334 0 1.4633 -0.24334 1.95 -0.73 s0.73666 -1.19 0.75 -2.11 l0 -0.52 l-1.02 0 c-1.1733 0 -2.0866 0.15 -2.74 0.45 s-0.98 0.75666 -0.98 1.37 z"></path></g></svg>