<svg class="css-ze2te4 css-qd6ojx" viewBox="0 0 83.33333333333333 73.0926272768702"><g transform="translate(-8.01390834478248, -13.134609138109901) scale(0.9936188914217559)" class="css-j490gl" fill="#276b96"><g xmlns="http://www.w3.org/2000/svg"><path d="M62.573,86.781c-0.548,0-1.084-0.226-1.471-0.645L48.709,72.688H34.247c-0.691,0-1.333-0.356-1.698-0.943l-8.071-12.97   l-13.533-5.149c-0.709-0.27-1.205-0.918-1.279-1.673l-1.59-16.166c-0.058-0.589,0.148-1.174,0.563-1.597l15.199-15.477   c0.256-0.261,0.578-0.446,0.932-0.537l19.161-4.895c0.19-0.048,0.383-0.069,0.583-0.06l14.001,0.611   c0.269,0.012,0.532,0.078,0.775,0.193l15.915,7.6c0.25,0.12,0.474,0.29,0.654,0.501l11.998,13.956   c0.215,0.25,0.364,0.548,0.436,0.87l3.593,16.168c0.115,0.516,0.021,1.056-0.262,1.502L82.367,69.27   c-0.413,0.655-1.154,1.018-1.937,0.916l-14.087-1.746l-2.103,5.238l0.331,11.044c0.025,0.834-0.471,1.596-1.244,1.911   C63.084,86.733,62.827,86.781,62.573,86.781z M35.357,68.688h14.229c0.559,0,1.092,0.233,1.471,0.645l9.356,10.154L60.23,73.38   c-0.009-0.275,0.04-0.549,0.143-0.805l2.832-7.055c0.339-0.842,1.201-1.358,2.103-1.239l14.356,1.779l8.139-12.878L84.497,38.31   L73.101,25.053l-15.167-7.243L44.635,17.23l-18.334,4.684L12.148,36.325l1.377,14.002l13.005,4.948   c0.409,0.155,0.755,0.441,0.987,0.813L35.357,68.688z"></path><path d="M30.711,46.518c-0.268,0-0.538-0.054-0.793-0.164L9.272,37.426c-1.014-0.438-1.48-1.616-1.042-2.63   c0.438-1.014,1.616-1.479,2.63-1.042l19.375,8.378L56.989,14.44c0.768-0.795,2.033-0.816,2.828-0.049   c0.794,0.768,0.816,2.034,0.049,2.828L32.15,45.908C31.765,46.306,31.243,46.518,30.711,46.518z"></path><path d="M34.248,72.688c-0.606,0-1.205-0.274-1.598-0.795c-0.666-0.882-0.49-2.136,0.391-2.802l18.724-14.134   c0.066-0.05,0.137-0.096,0.209-0.138l33.37-19.167c0.956-0.549,2.18-0.22,2.73,0.738c0.55,0.958,0.22,2.18-0.738,2.73   L54.075,58.226L35.452,72.284C35.091,72.556,34.667,72.688,34.248,72.688z"></path><path d="M86.863,60.415c-0.037,0-0.074-0.001-0.111-0.003l-33.891-1.861c-0.295-0.017-0.582-0.098-0.842-0.237L29.761,46.277   c-0.51-0.275-0.875-0.758-1.001-1.324l-5.447-24.404c-0.24-1.078,0.438-2.147,1.517-2.388c1.075-0.24,2.147,0.438,2.388,1.517   l5.248,23.514l21.062,11.389l33.443,1.837c1.104,0.061,1.948,1.004,1.888,2.106C88.8,59.59,87.917,60.415,86.863,60.415z"></path><circle cx="52.885" cy="56.603" r="7.409"></circle><circle cx="30.926" cy="43.96" r="7.409"></circle><polygon points="84.688,39.354 58.483,34.537 56.442,17.499 60.413,17.023 62.104,31.136 85.41,35.419  "></polygon><circle cx="59.409" cy="34.314" r="7.409"></circle><g><line x1="58.428" y1="34.316" x2="52.971" y2="56.554"></line><rect x="53.699" y="33.986" transform="matrix(0.9712 0.2383 -0.2383 0.9712 12.4307 -11.9634)" width="4" height="22.898"></rect></g><g><line x1="25.819" y1="57.145" x2="30.926" y2="43.962"></line><rect x="26.373" y="43.485" transform="matrix(0.9324 0.3614 -0.3614 0.9324 20.1846 -6.8366)" width="4" height="14.137"></rect></g></g></g></svg>